<svg width="418" height="512" viewBox="0 0 418 512" fill="none" xmlns="http://www.w3.org/2000/svg">
<path d="M67.3612 28.1182C46.413 28.1182 29.5469 45.0333 29.5469 66.0447V454.794C29.5469 475.806 46.413 492.721 67.3612 492.721H349.904C370.852 492.721 387.716 475.806 387.716 454.794V156.611L252.265 28.1182H67.3612Z" fill="#D45500"/>
<path d="M67.3612 19.6904C46.413 19.6904 29.5469 36.6055 29.5469 57.617V446.366C29.5469 467.378 46.413 484.293 67.3612 484.293H349.904C370.852 484.293 387.716 467.378 387.716 446.366V148.183L252.265 19.6904H67.3612Z" fill="#FF6600"/>
<path d="M97.7117 408.184C111.054 408.184 121.87 397.335 121.87 383.953C121.87 370.57 111.054 359.722 97.7117 359.722C84.3696 359.722 73.5537 370.57 73.5537 383.953C73.5537 397.335 84.3696 408.184 97.7117 408.184Z" fill="white"/>
<path d="M318.284 391.328C330.466 391.328 340.342 381.423 340.342 369.204C340.342 356.985 330.466 347.08 318.284 347.08C306.102 347.08 296.227 356.985 296.227 369.204C296.227 381.423 306.102 391.328 318.284 391.328Z" fill="white"/>
<path d="M181.739 255.424C193.921 255.424 203.797 245.518 203.797 233.3C203.797 221.081 193.921 211.176 181.739 211.176C169.558 211.176 159.682 221.081 159.682 233.3C159.682 245.518 169.558 255.424 181.739 255.424Z" fill="white"/>
<path d="M249.304 191.158H240.216C236.156 191.158 232.864 194.46 232.864 198.533C232.864 202.606 236.156 205.908 240.216 205.908H249.304C253.365 205.908 256.657 202.606 256.657 198.533C256.657 194.46 253.365 191.158 249.304 191.158Z" fill="white"/>
<path d="M287.838 194.292L278.797 193.368C274.757 192.956 271.149 195.906 270.737 199.958C270.326 204.01 273.267 207.629 277.307 208.042L286.348 208.966C290.388 209.378 293.996 206.428 294.408 202.376C294.819 198.324 291.878 194.705 287.838 194.292Z" fill="white"/>
<path d="M326.57 209.993L318.878 205.14C315.44 202.972 310.901 204.009 308.739 207.456C306.577 210.904 307.611 215.457 311.049 217.625L318.741 222.479C322.179 224.647 326.718 223.61 328.88 220.162C331.042 216.715 330.008 212.162 326.57 209.993Z" fill="white"/>
<path d="M353.711 239.215L349.042 231.394C346.956 227.9 342.44 226.764 338.957 228.856C335.473 230.948 334.34 235.477 336.426 238.972L341.095 246.792C343.181 250.287 347.696 251.423 351.18 249.331C354.664 247.238 355.797 242.709 353.711 239.215Z" fill="white"/>
<path d="M363.319 276.652L362.465 267.576C362.084 263.522 358.497 260.544 354.454 260.927C350.412 261.31 347.444 264.907 347.825 268.962L348.679 278.037C349.06 282.092 352.647 285.069 356.689 284.686C360.732 284.304 363.7 280.707 363.319 276.652Z" fill="white"/>
<path d="M360.814 314.57L362.635 305.639C363.449 301.649 360.884 297.752 356.906 296.936C352.927 296.12 349.043 298.693 348.229 302.683L346.407 311.614C345.594 315.604 348.159 319.5 352.137 320.317C356.115 321.133 360 318.56 360.814 314.57Z" fill="white"/>
<path d="M348.183 349.936L352.655 342C354.653 338.454 353.407 333.955 349.872 331.951C346.337 329.947 341.852 331.196 339.854 334.742L335.381 342.678C333.383 346.223 334.629 350.722 338.164 352.726C341.699 354.731 346.184 353.481 348.183 349.936Z" fill="white"/>
<path d="M280.444 390.987L289.524 390.602C293.581 390.43 296.731 386.991 296.559 382.922C296.388 378.853 292.96 375.693 288.903 375.865L279.823 376.251C275.766 376.423 272.616 379.861 272.788 383.93C272.959 388 276.387 391.159 280.444 390.987Z" fill="white"/>
<path d="M241.277 387.411L250.265 388.762C254.281 389.365 258.024 386.589 258.626 382.561C259.228 378.533 256.46 374.779 252.444 374.175L243.457 372.824C239.441 372.221 235.697 374.996 235.096 379.024C234.494 383.052 237.261 386.807 241.277 387.411Z" fill="white"/>
<path d="M204.712 377.635L213.619 379.443C217.599 380.25 221.479 377.669 222.284 373.677C223.089 369.685 220.516 365.794 216.536 364.986L207.628 363.179C203.648 362.371 199.769 364.952 198.963 368.944C198.158 372.936 200.732 376.827 204.712 377.635Z" fill="white"/>
<path d="M169.208 370.188L178.295 370.324C182.356 370.385 185.696 367.133 185.757 363.061C185.818 358.988 182.575 355.638 178.515 355.577L169.428 355.44C165.368 355.379 162.027 358.631 161.967 362.704C161.906 366.776 165.148 370.127 169.208 370.188Z" fill="white"/>
<path d="M135.284 376.196L143.641 372.615C147.376 371.015 149.11 366.681 147.515 362.936C145.919 359.191 141.599 357.451 137.865 359.051L129.507 362.632C125.773 364.232 124.039 368.566 125.634 372.311C127.229 376.056 131.55 377.796 135.284 376.196Z" fill="white"/>
<path d="M212.437 217.735L220.033 212.731C223.428 210.496 224.372 205.924 222.144 202.519C219.915 199.115 215.356 198.167 211.962 200.402L204.365 205.406C200.971 207.641 200.026 212.214 202.255 215.618C204.484 219.023 209.042 219.97 212.437 217.735Z" fill="white"/>
<path d="M144.854 256.795L153.703 254.717C157.657 253.789 160.112 249.822 159.187 245.856C158.261 241.891 154.306 239.428 150.352 240.356L141.503 242.433C137.549 243.361 135.094 247.328 136.019 251.294C136.945 255.26 140.9 257.723 144.854 256.795Z" fill="white"/>
<path d="M103.182 250.311L111.491 254.004C115.204 255.654 119.547 253.973 121.192 250.249C122.837 246.525 121.161 242.169 117.449 240.519L109.14 236.826C105.427 235.176 101.084 236.857 99.439 240.581C97.794 244.304 99.4699 248.661 103.182 250.311Z" fill="white"/>
<path d="M73.0992 227.177L79.7617 233.377C82.7386 236.147 87.3906 235.972 90.1523 232.986C92.914 230 92.7396 225.334 89.7627 222.564L83.1002 216.365C80.1233 213.594 75.4713 213.769 72.7096 216.755C69.9479 219.741 70.1223 224.407 73.0992 227.177Z" fill="white"/>
<path d="M53.0735 200.901L57.5601 207.713C59.5502 210.735 63.6637 211.658 66.7477 209.775C69.8317 207.892 70.7185 203.915 68.7283 200.894L64.2417 194.082C62.2516 191.06 58.1382 190.137 55.0541 192.02C51.9701 193.903 51.0834 197.88 53.0735 200.901Z" fill="white"/>
<path d="M252.43 19.1729C252.325 20.4199 252.254 21.6758 252.254 22.9515V105.061C252.254 129.652 271.994 149.449 296.511 149.449H378.371C381.711 149.449 384.957 149.067 388.08 148.367L252.43 19.1729Z" fill="#FFCCAA"/>
<path d="M282.634 148.846L387.44 253.968V148.846H282.634Z" fill="#D45500"/>
<path d="M57.344 67.456H71.648L87.2 91.648L103.424 67.456H116.864L94.208 100.48L118.496 136H103.904L86.816 109.792L69.44 136H55.712L80 100.48L57.344 67.456ZM119.594 67.456H133.898L149.45 91.648L165.674 67.456H179.114L156.458 100.48L180.746 136H166.154L149.066 109.792L131.69 136H117.962L142.25 100.48L119.594 67.456ZM181.844 67.456H196.148L211.7 91.648L227.924 67.456H241.364L218.708 100.48L242.996 136H228.404L211.316 109.792L193.94 136H180.212L204.5 100.48L181.844 67.456Z" fill="white"/>
</svg>
